<?xml version="1.0"?>
<VTKFile type="UnstructuredGrid" version="2.2">
  <UnstructuredGrid>
    <Piece NumberOfPoints="384" NumberOfCells="1054">
      <Points>
        <DataArray type="Float64" NumberOfComponents="3" format="ascii">-0.3397409915924072 6.079192161560059 3.95079493522644 -0.3606874048709869 6.126386165618896 3.226335287094116 0.3258437674051021 6.03287884868733 3.950459177709523 0.2313723911496895 5.8232995769532 2.950866360080084 0.1026993392551047 6.42624528826734 4.243661605288858 0.3430507241241798 6.31178146729741 3.46609196935598 -0.3216594208897249 5.833952167566448 4.668281574357314 0.0524093148420622 6.381408187239867 2.759924301421886 -0.06679757210081655 5.56224130259602 4.708357402047953 -0.3158111916354774 6.206986631393582 2.70284351618246 0.123389940799997 5.843118953122652 5.225830735524432 -0.1222767038504929 5.683526997691714 2.731077341702667 0.2302580192647614 5.430570968857893 4.925197279385723 -0.3203638494014741 5.39309310913086 5.175706386566163 -0.3703112900257111 5.456865310668945 2.110431671142578 0.2673887087517389 5.34805807072068 2.241622845497961 -0.3027556573603936 5.968150979323299 2.245677271245576 0.3062834071559056 5.505254307935105 5.273068257221547 0.04421557306092529 5.850800289013049 1.937429572811737 0.2810874666179974 5.220372704982745 5.515117485561039 -0.2596182227134705 4.56235933303833 5.306639671325684 -0.01175086672933354 4.630417582105586 5.801848949150724 0.3558903072842147 4.783375567352438 1.393665986624322 0.3131012196492051 4.451053603735128 5.466089166956806 -0.03118460921015064 4.671544458238753 1.93409738714034 -0.3838665187358856 4.787301063537598 1.447828888893127 -0.2990213768454732 4.012297757930354 5.415116722079826 -0.2654034613947811 4.312634690108482 5.746578470021152 -0.08207212683753624 4.152306505460436 1.184337735489375 -0.2612663525122998 3.765641874072584 5.657973216463353 0.2731104584407766 3.738363110339558 5.172759952322018 -0.426475895698566 4.474414614076346 1.807432046931235 0.2812279052152101 4.246141455572742 1.877628654420118 -0.3337151706218719 3.670181751251222 5.055967330932618 -0.03040372771384987 3.547925222541345 5.908859220008403 -0.4593577319635237 4.055178534473548 1.438379966997528 -0.04702384209479224 4.076115907677208 1.920043215655227 0.4373022074406634 3.900486978681203 1.34119964202885 -0.4591991741790201 3.553412724289386 5.40323069790854 0.4538807272911072 3.437337875366211 5.728557109832764 -0.4756689415845524 4.016992312446182 1.776486055336829 0.1128877603472437 3.717696985145799 1.223377571435948 0.4676501066529016 3.851531684029955 1.830325197675081 -0.03303458233212529 2.992331978843724 5.05498351649447 -0.04394519459567557 2.917307325284527 5.607021862046684 -0.4480594396591188 3.431942224502563 5.781296253204346 -0.4988081852550098 3.644833753258239 1.516601526150913 -0.219267724220958 3.425107698299198 1.27824226342046 -0.8791297251577144 3.446297226993532 5.201922357425053 0.2031288365212607 3.740297319685532 4.657100543591555 1.476513546032491 3.083814327214956 5.787107589181807 -0.4488874485911863 3.691911351950025 1.91566433303671 0.5001746395885901 3.36542100383274 1.457686729553967 0.2793621743457543 3.536906580934716 2.129119447871985 -0.3972413623695737 3.103653094671558 4.497133441722326 -0.781685715005682 2.837277561653393 5.279904043765831 0.330648532793484 3.07587634757257 4.638468889924371 0.7689749681899627 2.82386256932071 5.379087075871995 0.6926307040978256 3.564286602555322 5.010798639262299 -1.616255036003043 3.024148901537386 5.623967936608423 -1.006621975997213 3.599630918181357 4.683887247544956 -0.9275892187202812 2.907982086713011 4.809897526406785 -0.02395633669311873 3.858538558618269 4.041569454462639 1.103259569326675 3.35097752096993 5.278909546107665 -0.4626650606887401 3.272824059102941 1.382918726818826 -0.499791204929352 3.547766447067262 2.523972749710084 -0.05565672367811204 2.882684946060181 1.362541556358337 -0.6107546976847614 3.787987657070399 4.255948544985419 -1.406441258337992 2.615843936718399 5.146573712862557 0.2133441594468685 3.210443066314225 3.997340737792493 0.7780398125930166 3.76679224446931 4.178399074612515 0.9085549537443739 2.870750593877541 4.976301089260749 1.521644196267953 2.521291176861698 5.266695897528257 -0.7319011334753869 3.176998275278651 1.854063799727169 -0.3533478034123813 2.878670280327921 2.530004354834988 0.03795628151884316 2.334275472900391 1.839497170575304 -1.200498024198631 2.940682028798473 4.256669354926354 -1.465401172064504 3.4054012520305 4.782131966611017 -0.6350944530357044 3.171235685279537 3.764364921827956 1.109566224557415 2.95507866331376 4.352283820428354 1.719411916217019 3.130845033582655 5.163984369114668 0.5128455606447613 2.935821963968273 2.682109475230596 1.062965436116427 2.590783291940029 1.556177058659707 0.8334212827302226 3.306052048644955 2.180820385260311 -1.235674764345496 3.629162603513134 4.25308098107757 -1.709332488862813 2.590224760148935 4.585063351288656 -0.6780036211796817 3.78378269651243 3.369260105968567 -0.07884254266752821 3.177196529248224 3.232090485401534 0.8263186539236003 3.763008917191459 3.45956115711849 1.367980656447189 3.474547718865622 4.691543943711206 2.030927850334802 2.828702315299049 5.407531287021934 -1.256538748891253 3.209558352644238 2.28358066061329 0.5093733140285546 3.671957005789463 2.830805509001374 0.504947253032771 2.228481500129933 1.178664147236546 -2.142446387039736 3.032686790812358 4.763453577017782 -1.011605494792991 3.734884754834966 3.840549015181276 -0.06026246520537407 3.795661701949538 3.124370712814027 0.8338912512069385 3.126553550756043 3.590036084767238 1.650102055943254 3.500412536968188 3.843996985804699 2.183059396226969 1.930843527515559 5.549346505195357 1.714955567831118 2.482172168406632 4.944367363523522 -1.052174356054475 2.92966291894319 3.005477749564462 -0.9734326685554636 2.502449680516592 2.209624019482011 -0.2730645828382267 2.106097792481576 1.082913812900072 1.148341644054925 2.376046320610526 2.151860503282149 -0.7842764621831141 2.4855113199785 1.395414877524854 -1.824236341570064 3.386819788079018 4.16277028092869 -1.847204445908484 2.367017931923081 5.000970369758456 -1.460820750538572 3.575053432848355 3.554780128354823 2.021926897817008 3.206004765204089 4.477793895905857 2.386803820974205 2.449735031570906 5.786717936208428 2.150446213678285 2.039543582490237 5.171575049249657 2.361042558390095 2.755252632644487 5.011169845681883 -1.180557360353802 3.535882120665769 2.881086604253954 -1.410175465693671 2.730073602208159 1.809111362831685 1.374701466832527 3.479032378529427 2.93126173786021 -0.02138184731978037 1.606346317903258 1.392234829603042 0.8662799664171688 1.502305682234538 1.449066219404662 1.719648455188295 2.891437147475756 2.156949909520684 1.377389776036203 2.794538240368981 3.023428729997463 -1.3917387559393 2.920373827395396 3.721771345750617 -2.029585284792578 2.50167311810043 3.946176632504868 -2.506954826770019 2.485482450008645 5.273265088166426 -2.363886882705367 2.033619661918515 4.523471428161416 1.737991211133443 2.726586097004438 3.776128915202378 2.870934963226318 1.861016631126404 5.786399364471436 -1.757161854623357 3.300184725287466 2.917834889339136 -1.851320583033504 2.315340261027051 2.657099191812942 -1.975182051933024 2.85515338268973 2.321996081592606 -0.8764572364460965 1.830657370064612 1.609505490870535 0.1157455587663934 1.752351584391711 0.9005658166710611 1.109167337417603 1.567529320716858 0.9720035791397097 1.838049835040839 2.078350141107638 1.48547209846601 -2.252532714274296 1.945404797227401 5.11505342322693 -2.372566142972032 3.042707622652729 4.054669924023167 1.979425157285655 2.445689808108448 4.400606328842307 2.441242669688478 2.995698285163966 3.971252054484983 3.331188960239771 0.773658407837416 5.802919335442763 2.752580060431058 2.248780261473773 5.207833730976067 2.5175801517036 1.720823181652144 4.811529519741153 -1.268037446274713 1.991569422523848 1.227458344629817 -0.7584434760068337 1.450326659234318 0.852998215510163 1.860463917028965 1.737451033294094 2.046433169639867 1.823887459687833 2.284696478090347 2.576926220476992 -2.023330884237087 3.276157342130038 3.44780709342305 -1.809423289571208 2.648660927502996 3.37095540183012 -2.859624112425195 2.525893767855952 4.367626293365432 2.231373917922539 3.050208058556179 3.0629736287505 2.569740848069957 1.436954371185053 5.269376760640291 -1.515312818397028 1.971387416285133 1.984952527059445 -0.1446954613776302 0.6494010993256818 1.171372278756597 -0.9467064736881273 1.071852721237898 1.325955939444631 0.1448965391263104 1.231277197010801 0.7261833299988121 1.881816283387921 0.8741169822410773 1.640739593599392 2.559808372008905 2.337799917678353 2.314934303085977 -3.248212455626982 1.790576834353811 4.774847501539368 -2.771599757693145 2.667693252087745 3.41695113253773 -2.694588639827971 1.760622911848856 3.993174101518006 2.172042906190863 2.315438573612897 3.226765494294411 2.504309871179837 2.01190226898783 4.024254864792719 3.245566709336091 1.335691728966383 5.327615211594418 3.129488754103893 2.072013586423883 4.632238680926567 2.772541236710928 2.625616701794247 4.348570769101305 -2.320918806431891 2.921287563748959 2.897431634582396 -1.994765255248852 2.25491974178461 1.741878125444345 -1.337638066066424 1.381835707266742 0.9178232344761512 -0.4638421972129483 0.499910569616767 0.6277639937890446 0.9423710826311427 0.8448029664710996 0.7341395169981144 1.941074735672851 0.9659893560752674 0.6337663202241464 0.9875675417241259 0.4166128412943202 1.23715464976099 2.707222567776781 1.237143275338374 1.695936313979219 -2.861488310192357 2.105521102506704 5.212518436498664 -2.670398149554073 1.437161319610665 4.886218119566821 -2.379225920167484 2.168224922063007 3.473605285748709 3.056912650071448 2.322088519500266 3.353844856233573 2.931866855179601 0.6221202813817859 5.033508127077063 -2.634003783364535 2.418955626716119 2.513160187631597 -1.66845950360508 1.14414160666125 1.605363167891273 -2.182365137256038 1.596453265440722 2.234405515737679 -1.149571208339301 0.8560171180080127 0.7835777485622881 2.623362652251936 1.475682318570654 1.000806652443942 2.614394774761031 1.105455242217723 2.429120348031137 2.327260622270688 1.901575455142941 2.742652117385032 -3.045910402888409 1.83303132933736 5.206090906373054 -2.855566670661106 1.307931979741714 4.427954171637616 -3.259200263523136 1.490093689894926 5.129506229847262 -3.311771257054758 2.004513625571739 3.775698231517992 3.587133735581812 0.2713198331179262 5.095297558919616 -1.908675140271511 1.897316423686499 1.010247743812775 0.3652372467141166 0.1316834234201648 0.6084828277743046 -1.270967639360646 0.3750793506394023 1.296217440947543 2.364963085233625 0.3018387030671124 1.244262332734607 2.455259838186779 0.5286859455176971 2.008117628008798 2.818677966806963 1.528817551591178 3.387386472230368 2.970189936643225 1.09190109069305 4.312002259723561 2.921207607805609 -0.03142249608814421 5.647602535203562 3.719941384426583 0.8562654632805879 4.345489728711591 -2.515561506986761 1.75725996168858 2.888162825923875 -2.549348607793119 1.705171756140026 1.797185642774849 -1.890140571043178 0.9298167061083024 0.7118274022623194 0.1827561603640579 -0.1336110943795772 1.125301355086298 -0.7911420538284024 -0.3233724915368046 1.198153662716524 1.251088414884361 0.03112651803549771 0.7294365324938717 3.387195447563348 1.47677425839322 2.791018783907436 3.380738012526039 0.4573445137270563 2.227123801025681 -3.430280516558035 1.239289254972851 4.956716862035006 -3.69055696988771 1.112918989854838 4.080317198072266 -3.091330107565482 0.9318184082533411 3.932757311189149 -3.154563701245254 2.112003284179438 3.133059351192384 3.524134219505598 1.600352797337584 3.726051808435853 3.366976063310765 -0.5763495389692285 5.786433016350514 2.976418173173534 -0.5039300476089995 4.942303923100213 3.189904867523405 -0.006665141186660868 4.184222985002173 -2.383256606912482 0.8584354890217289 2.030905995615377 -2.558913030224147 1.20414232475399 1.229741470179005 -0.4089515090085633 -0.4393784953524292 0.6206709164125994 -1.519561755311619 0.1669155806303024 0.815544489838796 2.022484596291752 -0.1675082344810468 1.610028345984654 2.877866555132173 0.2863442178607812 2.515217231740037 -3.571707218803954 1.075170686314781 4.715174569452881 -2.931962371929436 0.8782475578479386 4.772676877784662 -2.881419448754971 1.411674051850633 3.380813589020299 3.856406220605303 -0.1389330632990615 4.037245177666384 -3.239508055975026 1.615558148291355 2.609099057989232 -2.778080487705166 1.044679408848151 2.6637632394893 -2.361237585326497 0.424454382501903 1.252774025741468 0.6834983381690763 -0.9377388033694866 0.7060154810546527 -1.7968846552016 -0.5504031395440023 1.520108799742034 1.078706106401714 -0.5247355086577336 1.265385808094078 1.679130324808586 -0.6213458193908149 0.9158596656023205 2.679496079801468 -0.325454184474968 2.224218664725265 2.9773142474121 -0.5869885680781592 1.771265865960016 3.170803583431054 0.4670701688401419 3.368742146042877 -2.874637365341187 0.9290758967399597 4.93691349029541 -3.598306596718805 0.6623525044669318 4.926264012270233 -3.559589631323849 1.453393672228021 3.394648874426484 3.6549789435702 -0.8763845705925601 4.603545543330179 -3.121929098016679 0.8600747174602001 1.991011476267111 -0.4043424560841918 -0.8970255224153774 1.220043727659784 0.350692429254197 -1.099429031996537 1.254682611521155 -1.320611156846616 -0.8685422072563483 0.8329373952139592 -2.113307731024412 0.2081248380397074 1.674460961685543 2.307723016771633 -0.7916474533381228 1.282277409139533 3.796209591189991 0.4238797837257919 3.239087421817223 3.530619031527299 -0.412455274166558 2.470838896885962 -3.089799279052976 0.6488923370439377 4.360553772197516 -3.684581038163011 0.7840477167785477 3.025577770615398 2.729068252347724 -1.174575137033389 5.141866758396925 3.051755414382551 -0.9501738026621721 4.150998164600494 3.176237439360026 -0.5642093366083833 3.525865363302677 -2.796739607369543 0.1894144095328252 2.373917397573035 -0.4359430688512275 -1.370933166672091 0.7845133626206569 -2.264660487056179 -0.3542286166679496 1.184706035022238 -1.191890261303041 -1.353596909573113 1.482776291225021 1.641839848393482 -0.9713104009088547 1.535213620129888 2.290879991948757 -0.9515804087636582 1.976667216221967 2.950389433054063 -0.6326479884953775 2.763058248171724 -3.750496600797811 0.5904008412365355 4.455988852202147 -3.86036040009862 0.1802762421913411 3.616493663519432 -3.154561780662036 0.353123440404884 3.212660900482804 2.99320855358684 -1.723618989429284 5.506621055028581 2.800118673840458 -1.325685613197931 4.606566084227816 3.717682278644443 -0.9331901742098764 3.32973868271378 -3.017466836285843 -0.1594808563735204 1.758014652566994 1.024561526254797 -1.417819299505773 1.456327384504682 0.2381650606136833 -1.914388318731394 0.8440122616199301 -2.461775649533082 -0.5165529552046437 2.011782657902783 -2.110394456060306 -1.222995541931901 1.281474272721852 1.734485057689664 -1.344129424065965 1.122500191541476 3.208582377005421 -1.312874110996765 2.315930275330541 -3.059804492883385 0.412153593344829 4.662944292202534 -3.217176146567656 0.01284314334661973 4.002083657869951 2.299497190545195 -1.81182707650751 5.366647227189047 3.476038675007024 -1.667437252399512 4.08264903642871 -3.621452403462489 0.007377506170251283 2.61214053966544 -0.351033265503974 -1.652018080033578 1.428099944992627 0.9845923435428982 -1.96262941769348 1.122950657407296 -2.207256561753623 -1.401840509135391 2.125627437410242 -1.193570117315741 -1.82740351470091 1.115629388674167 2.451867964184539 -1.505291131750441 1.623087120991876 -3.139768559440515 0.1383008621197269 4.426625879163731 2.338158169212388 -1.983470836559002 4.741611284902175 2.666907700851418 -1.799913773841839 4.006268819456452 2.880639223816476 -1.409589779109235 3.370533751034551 -2.915259812765636 -0.7851450038692861 2.764615367507688 0.4845667025894438 -1.8923634598968 1.56241345279553 -0.426374838788571 -2.289791409593796 0.6752979110429053 -2.826115924775557 -1.031983425906694 1.744401633304706 -1.819746664385297 -2.287348161381871 1.664994993747481 1.508976775519014 -1.80547658793095 1.857325020611623 2.398698598710231 -1.684035731101984 2.589135806497209 -3.800470500666217 0.04993167035482582 4.441510404684457 -3.781386521490934 -0.472049916667468 3.188291838466517 -3.167112500182272 -0.6147682739704847 3.527142543325169 2.3505621103076 -2.529618422043155 5.502120582616316 2.919819747456098 -2.515076217980357 4.104563740967998 3.201524200301855 -2.031995930402103 3.119168293411414 -3.439791731260298 -0.9608485464006027 2.507236678826427 0.2190473127007965 -2.970198341990026 1.057183006394318 -0.3657093128930389 -2.427724834245051 1.950333136575571 -1.545829650623442 -2.28588503415064 2.311368173960155 -2.539995586079507 -1.803366209168062 1.853401144537298 -0.888535886706457 -1.989739245098701 1.714173491881513 1.78481365770616 -2.258124446828394 1.624211051266917 2.622257058744182 -2.25875891166497 2.304759662221846 -3.124305783003201 -0.2242614257526572 4.478201091051176 -3.75901696692817 -0.7215622168115794 4.302288032320118 -3.15116717087923 -0.3071959121922615 4.31330551634875 2.341547376598069 -2.686894493821231 5.18404035130506 1.781487697912273 -2.38055300021383 5.128743657458334 0.8544848783974892 -2.817771154045519 1.679039380154687 -0.7509696863946794 -2.791236043928047 1.617776063864162 -3.719182533629113 -1.065800559430965 3.72778128024092 -3.096920569805278 -0.8444724407128347 4.082084806014127 1.330551225955478 -3.16257968954909 5.61875394140421 2.04265024506675 -2.480335339310278 4.019922987033723 2.286875371776276 -2.216136068890774 3.269700261228842 0.6958297200738723 -2.554445914324003 2.163503587177046 -3.097857056147005 -1.748395425260892 2.473414527554035 -2.406202591954573 -2.526601845311228 2.351958292154387 1.597919573347339 -2.484712544842816 2.632050682629709 -3.468405146523784 -1.546602613639601 3.14518964576309 1.72138365302686 -2.555646609971213 4.678383148384057 2.066098851503698 -3.269730643442052 3.911173312500778 2.502134726846306 -2.865962643477297 3.163492852690434 0.01573082699795299 -3.289945586658507 2.058008798104053 -2.396590282555084 -1.89445124987051 2.856014298851138 -1.674169555812348 -3.066044332455161 2.359260829009617 1.874019276095112 -2.971060939663601 2.395269219082209 -3.067733662216546 -0.7004634437595921 4.404000206163881 -2.855925578462116 -1.517863704467345 3.695554921613901 -3.439132383180842 -1.654087408935175 4.354881532971698 1.310643899513081 -2.710274237415804 4.974391779942511 -0.7893678926842962 -2.892568609833248 2.717397610335631 -1.630824095925578 -2.697190421776881 3.13576568570119 -3.509330481784745 -1.263766935718998 4.709794198007786 -3.184728384017944 -2.184352397918702 3.561802148818971 -2.903485593616867 -1.297407104998317 4.245663779366591 1.262272423663258 -3.529687746507205 4.649469385305434 1.271207428688117 -2.938400464149191 4.114610942424926 1.483962789384739 -2.839097053487705 3.364787768448652 0.9369569639464183 -3.393408387792913 2.408805356551666 0.02567680143135306 -2.91460180582658 2.554924519846989 -0.830463640234558 -3.511510860873754 2.581164001448524 -2.311393082410906 -2.999950237729988 3.095497710394771 0.9733317606341976 -2.947758450146441 4.587169839269394 1.501555601900661 -3.455110163175494 3.023131531121361 -1.668368758682516 -3.456836659915857 3.361812080172368 -2.296748621743904 -2.269398914939735 3.574912418599488 0.733767569611474 -2.980538853541301 2.893091490275714 -2.702189508854095 -1.664819966468899 4.265067249484689 0.7434403821664728 -2.921842528284066 4.959951762117498 0.3806441846017772 -3.515763228939313 5.257268217473813 1.201349017731764 -3.675596729706383 3.674151846280998 0.4227737682659635 -3.727156426807482 2.96533258876882 -0.1383993030235728 -3.178935676838615 3.24919736849276 -0.8757535183099265 -3.075247556685468 3.324055288314143 -1.793230733501714 -2.688384955009163 3.837601557350674 -2.50162901340075 -2.023902402128651 3.978973907505463 -3.042303751946724 -2.324331651597539 4.290983407517342 0.4275906802161099 -3.145265171199056 4.272953448178948 0.5766014746871223 -3.182563697348132 3.670631589975398 -2.414888329725712 -3.018682539990952 3.950316994646844 -1.186891243187379 -3.008062060155695 3.709312685357704 -0.6852379967357205 -3.80169682464561 3.571118929356867 -2.65959910358548 -2.767595772165274 4.227635289578932 -3.118946141970184 -1.965654852101195 4.85059079066808 0.09087179617386026 -3.001462589162779 5.011201908895905 0.2544684943549214 -3.078837964988165 4.655432916975752 0.3955417397176378 -3.838591139326384 4.037377236956562 -1.429918344948333 -3.562885749403338 4.227124437761716 0.6592590247514704 -3.355052593536487 5.731456855082121 -0.3497094403532742 -3.783190382406353 4.455836276623804 -0.442473287702102 -3.194679032038602 3.920557806217413 -1.016761358979508 -3.005658115202576 4.270059565395974 -1.66219801235663 -3.398837752284088 4.511326897003741 -2.351925069444851 -3.016157479041341 4.311480551337395 -0.3187235144001432 -3.135865362486738 4.388321515745666 -1.436628937721252 -2.800647735595703 4.390368461608887 -2.086724695835471 -3.181462346565139 4.414258105875893 -1.703015760372619 -2.682039932415646 4.25165714496317 -0.4710147393536946 -3.053513864452606 4.653431254168644 -1.076353021179427 -3.619428397018614 4.538649515906656 -1.023052930831909 -3.538930654525757 4.859286308288574 </DataArray>
      </Points>
      <Cells>
        <DataArray type="Int32" Name="connectivity" format="ascii">0 1 2 3 4 1 2 0 5 2 1 3 4 2 1 5 6 0 4 2 7 5 1 3 1 4 5 7 0 6 8 2 4 8 6 2 7 1 9 3 2 8 10 4 10 8 6 4 1 11 9 3 7 9 11 3 2 10 8 12 8 6 13 10 14 1 11 9 11 15 7 3 9 11 16 7 10 13 8 12 11 16 14 9 11 7 15 16 10 17 13 12 11 14 16 15 15 16 7 18 17 19 13 12 17 13 19 10 18 16 14 15 19 20 13 12 13 21 19 10 14 22 18 15 23 20 19 12 21 20 13 19 22 14 24 15 25 14 22 18 20 21 23 19 25 14 24 22 20 26 21 27 20 21 26 23 24 25 22 28 29 21 26 27 20 30 23 26 29 26 21 23 25 24 31 28 28 22 24 32 30 20 33 26 30 23 26 29 21 29 23 34 25 31 35 28 36 31 24 28 37 22 28 32 24 36 28 32 26 33 30 29 23 30 34 29 31 36 35 28 37 28 36 32 33 38 30 29 39 30 34 23 38 34 30 29 36 40 31 35 36 35 28 41 36 37 32 42 36 28 37 41 30 38 33 43 39 34 30 44 45 34 38 29 34 38 30 44 46 40 36 35 28 35 47 41 35 36 46 41 36 37 42 41 48 33 38 43 43 33 30 49 43 30 38 44 44 39 34 50 43 39 30 44 38 34 45 44 51 46 40 36 35 46 47 41 51 46 36 41 42 37 52 41 53 36 42 41 48 54 33 43 38 48 43 55 43 54 33 49 56 43 30 49 55 43 38 44 57 39 44 50 30 39 43 58 44 43 39 57 45 34 59 44 55 38 45 44 46 51 47 41 36 53 51 41 52 53 42 41 60 54 33 48 43 61 48 54 48 38 45 55 48 61 43 55 62 33 54 49 54 43 56 49 30 56 49 58 56 30 43 58 39 57 63 50 57 43 39 58 55 45 59 44 51 47 64 46 53 47 51 41 65 53 51 36 41 53 66 52 54 33 67 60 48 60 54 61 48 45 59 55 61 48 68 55 62 54 33 67 49 54 62 69 49 56 54 69 56 49 58 70 71 43 58 56 39 57 58 63 63 57 72 50 71 58 43 57 51 64 73 46 47 64 53 51 41 66 53 47 51 53 65 74 52 53 66 75 76 67 60 54 77 60 48 61 60 76 54 61 59 68 48 55 48 68 77 61 54 78 67 62 62 54 78 69 70 49 62 69 56 49 70 69 79 56 58 70 58 71 56 79 57 71 58 63 72 80 63 50 71 57 72 63 73 53 64 51 53 66 64 47 51 65 73 74 74 53 65 81 73 53 51 74 82 52 66 75 53 52 83 75 74 66 53 75 76 60 67 84 54 67 78 76 60 77 76 61 68 77 59 48 85 77 68 61 86 67 78 62 78 87 62 69 62 70 69 88 70 79 56 69 58 89 79 70 71 58 89 79 89 58 71 63 80 72 90 50 80 71 72 63 53 66 73 64 73 65 91 74 81 53 65 92 87 74 65 81 81 74 53 75 53 73 66 74 82 66 93 75 82 83 52 75 83 81 53 75 74 73 66 75 77 76 84 60 84 78 67 76 77 85 76 61 59 77 68 94 68 77 85 94 78 67 86 95 78 87 86 62 87 96 62 69 69 96 62 88 97 69 70 88 69 70 79 97 89 98 79 70 71 89 80 79 80 89 71 63 99 50 90 72 100 72 90 80 72 100 71 80 91 65 101 74 74 91 73 102 92 81 53 83 65 87 81 92 65 101 74 87 103 93 66 75 93 104 82 75 82 104 83 75 104 81 83 75 105 66 73 75 102 73 74 75 76 84 106 77 67 78 84 95 76 84 78 95 106 85 76 77 107 59 68 94 77 106 85 94 107 68 85 94 86 78 95 108 87 86 101 78 96 86 87 62 87 96 69 88 97 87 69 88 97 70 98 88 98 79 70 97 79 98 89 109 80 100 71 79 89 80 79 109 90 50 99 110 99 90 111 72 72 90 111 100 100 90 112 80 113 65 101 91 101 91 74 102 91 114 73 102 83 92 81 115 96 87 65 92 81 87 97 92 101 65 86 87 103 66 105 75 103 116 93 75 117 104 93 75 82 104 93 117 104 83 118 82 83 81 104 119 105 73 102 75 84 76 106 120 78 76 95 120 76 84 95 120 85 76 121 106 107 122 59 94 94 121 106 85 107 85 123 94 78 86 101 108 120 95 78 108 87 65 86 96 87 96 88 92 88 97 87 92 98 97 88 115 79 98 124 97 124 98 79 109 79 80 100 109 99 50 125 110 110 90 111 99 90 112 111 100 80 112 100 109 101 86 65 113 126 113 101 91 101 91 102 127 105 73 114 102 102 91 114 128 119 83 81 115 97 81 92 115 103 105 129 75 103 93 116 130 117 93 116 75 129 116 103 75 82 93 131 117 117 82 104 132 82 118 104 132 118 83 104 119 129 105 102 75 120 106 84 108 106 76 121 120 84 95 120 108 107 59 122 133 123 122 107 94 94 106 121 134 121 123 85 94 113 101 86 108 120 78 101 108 88 97 92 115 97 98 119 115 97 98 124 119 109 79 124 135 136 98 124 109 109 100 79 135 99 50 137 125 110 138 125 99 111 112 90 110 110 111 138 99 100 139 112 111 112 100 109 135 101 113 126 108 91 101 126 128 101 91 127 128 91 102 127 128 114 129 105 102 127 102 114 128 81 97 119 115 119 118 83 115 140 105 129 103 116 141 103 130 93 116 130 117 129 116 141 103 130 131 93 117 131 82 117 132 104 142 117 132 118 143 104 132 104 143 118 119 120 144 106 108 120 106 145 121 107 122 123 133 123 146 122 94 134 146 121 94 134 145 106 121 123 121 146 94 120 101 126 108 98 147 119 115 147 124 98 119 109 124 136 135 124 98 136 147 137 125 148 99 148 125 138 99 112 111 138 110 138 111 148 99 100 112 139 135 111 138 139 112 112 136 135 109 127 126 101 128 129 105 140 114 102 114 129 149 149 102 114 127 114 149 127 128 119 147 118 115 141 140 129 103 150 130 141 116 150 117 130 116 151 129 116 141 152 131 130 117 132 117 131 153 142 117 132 153 143 142 104 132 118 154 143 132 118 143 147 119 126 144 120 108 120 145 106 144 122 133 155 123 155 122 123 146 134 121 146 156 134 106 145 144 156 134 121 145 146 157 121 123 126 101 120 145 124 147 158 119 159 136 124 135 147 136 124 158 160 137 125 148 148 125 161 138 139 138 111 148 162 139 112 135 112 138 139 162 112 136 162 135 163 126 127 128 101 126 127 145 114 140 129 149 149 114 164 128 127 149 164 128 129 165 140 141 150 141 130 166 150 151 116 141 130 117 150 152 129 151 165 141 152 131 117 167 168 132 131 153 131 117 169 153 170 142 132 153 142 143 154 132 143 147 154 118 143 158 147 119 120 144 126 145 122 155 133 171 123 133 155 172 157 146 155 123 156 121 146 173 134 156 144 145 173 156 121 145 121 157 146 173 159 124 136 158 159 162 136 135 147 174 136 158 161 125 148 160 160 175 137 148 161 139 148 138 159 139 162 135 161 139 138 162 128 127 163 176 163 127 126 145 164 140 114 149 129 140 177 149 128 164 127 176 164 149 127 178 165 140 177 129 150 166 130 152 151 150 166 141 117 150 152 167 165 151 179 141 165 177 151 129 167 131 117 169 168 131 167 153 168 180 132 153 169 167 131 153 132 180 170 153 154 142 132 170 181 142 170 153 154 182 143 142 158 147 154 143 144 163 126 145 183 133 155 171 123 155 184 172 185 155 133 172 155 186 146 157 157 155 184 123 156 146 157 173 144 156 163 145 173 163 156 145 174 159 136 158 136 162 159 174 147 154 174 158 148 139 161 160 137 187 175 160 175 160 139 148 161 139 162 159 176 127 163 173 173 127 163 145 188 140 164 149 188 177 140 149 176 164 127 178 149 164 177 178 177 140 165 188 166 152 150 189 166 179 151 141 150 166 190 151 189 152 150 167 117 150 167 169 151 179 177 165 167 169 168 153 191 180 168 153 180 191 170 153 181 142 154 170 170 192 181 153 181 154 142 182 182 158 154 143 185 133 155 183 172 155 184 185 186 146 157 156 186 155 184 157 156 157 186 173 156 176 163 173 174 193 159 158 159 162 161 174 158 154 174 182 161 194 160 139 187 195 137 175 175 187 196 160 175 139 160 194 139 161 194 159 197 127 176 173 164 177 188 149 198 164 176 178 127 197 176 178 164 198 177 178 199 177 165 188 189 150 166 200 179 190 166 151 190 201 166 150 150 189 167 169 179 199 177 165 177 190 179 151 167 169 202 168 169 202 168 153 168 202 191 153 192 170 191 153 170 203 154 181 204 170 192 181 182 154 203 181 185 155 184 205 184 172 185 205 186 155 206 184 157 184 186 207 156 186 208 173 157 208 186 173 156 208 176 173 174 193 158 182 193 159 209 174 209 159 161 174 154 203 174 182 160 196 194 161 195 137 210 187 187 211 195 175 187 196 212 175 175 196 194 160 159 161 194 209 208 197 176 173 177 198 164 188 176 197 198 178 213 177 198 178 177 199 214 188 150 201 166 200 189 166 215 200 150 189 169 200 190 166 216 179 201 166 216 190 189 167 169 202 177 190 199 179 153 202 217 169 153 217 202 191 191 217 192 153 204 170 191 192 203 170 204 181 192 218 204 181 182 203 193 181 205 155 184 219 172 220 205 184 185 172 220 205 155 206 184 219 206 186 184 207 221 157 186 207 221 208 157 173 157 186 208 221 193 174 203 182 174 209 193 203 194 193 159 209 196 194 161 209 211 195 210 187 187 212 211 175 196 194 212 175 212 222 196 187 208 176 197 223 197 208 221 173 198 177 214 188 198 197 176 223 178 197 198 223 198 224 213 178 213 177 214 198 225 177 199 214 201 215 166 200 200 215 189 226 202 169 189 200 199 190 216 179 215 166 216 201 227 201 216 190 199 190 177 225 217 169 202 228 202 191 217 229 230 191 217 192 204 191 231 192 218 203 204 181 204 230 218 192 232 193 203 181 219 184 205 220 220 172 185 233 220 234 185 205 206 184 219 207 186 206 235 207 221 186 235 207 186 235 208 221 232 193 209 203 193 194 232 209 194 196 232 209 236 211 210 187 236 212 211 187 196 212 194 232 222 212 236 187 222 212 196 232 197 208 223 221 178 224 197 223 198 224 178 223 237 224 213 198 214 237 213 198 225 213 177 214 238 215 201 200 226 200 202 189 226 200 215 239 169 202 228 200 216 190 199 225 201 216 215 240 216 227 190 241 240 201 216 227 241 177 190 225 228 202 217 229 191 242 217 229 230 231 191 192 217 231 191 230 230 204 231 192 218 232 203 181 218 203 243 204 244 204 230 218 220 219 184 245 234 219 205 220 185 234 220 233 207 184 219 245 207 219 206 245 206 246 235 207 221 235 246 207 235 223 208 221 203 209 232 243 196 232 209 243 210 211 236 247 211 248 212 236 222 212 248 236 232 222 212 249 232 196 222 243 223 224 197 221 198 237 224 223 224 213 250 237 225 237 213 214 241 213 177 225 238 215 200 239 201 215 238 240 202 200 226 228 228 200 226 239 226 215 251 239 190 216 241 225 227 216 252 241 240 216 252 227 253 201 240 227 228 217 254 229 229 228 202 226 242 231 191 217 217 242 254 229 255 231 217 230 244 204 231 230 218 243 203 232 204 244 243 218 230 256 244 218 220 234 219 245 245 219 206 257 206 207 245 257 246 206 258 207 246 259 221 207 235 246 224 221 224 223 235 221 236 260 210 247 236 211 261 247 211 261 248 236 248 212 222 249 262 222 248 236 232 222 249 243 237 246 224 223 246 224 250 237 237 213 250 263 213 237 225 263 225 241 213 263 215 238 251 239 201 238 253 240 251 238 215 240 239 226 228 264 251 226 239 265 241 216 252 225 266 227 252 241 252 240 227 267 227 240 253 267 254 228 229 268 226 229 228 268 217 242 231 255 255 217 242 254 242 254 229 268 230 255 231 269 269 230 244 231 243 244 232 218 232 244 256 218 269 244 230 256 234 220 270 245 245 234 219 257 207 206 258 257 245 207 271 257 258 259 246 207 246 259 224 221 223 246 224 235 272 210 260 247 236 261 260 247 261 273 248 236 262 248 222 249 273 262 248 236 249 222 262 243 244 232 249 243 250 274 246 237 259 224 250 246 250 274 237 263 241 250 213 263 225 252 241 263 238 275 251 239 238 251 253 240 268 228 226 264 226 239 276 264 265 226 239 276 239 275 251 265 252 227 266 267 252 266 241 263 227 253 277 267 240 278 253 267 254 228 268 264 255 242 231 279 242 255 254 279 268 242 254 279 256 255 230 269 269 255 231 279 244 249 232 256 256 244 262 269 270 234 245 257 258 271 207 257 280 245 271 257 258 259 274 246 271 259 258 207 272 260 281 247 261 281 260 247 260 273 261 236 273 248 282 261 249 262 248 283 283 262 248 273 244 249 262 243 274 259 250 246 274 250 284 263 241 266 250 263 275 251 253 238 251 278 253 240 276 268 226 264 239 285 276 264 239 285 265 276 275 239 285 265 275 286 251 265 266 287 252 267 266 227 277 267 266 252 287 263 288 277 253 267 278 288 253 267 289 254 268 264 254 255 289 279 289 268 254 279 290 255 256 269 269 290 255 279 244 262 249 256 256 262 283 269 280 270 245 257 280 257 234 270 257 258 271 291 271 280 257 291 274 259 258 292 293 259 258 271 272 281 260 294 281 260 295 261 273 295 260 261 282 283 248 273 273 282 295 261 283 249 262 256 283 262 273 296 250 284 259 274 297 274 284 263 250 266 284 263 253 278 251 275 268 276 289 264 289 276 285 264 285 265 276 298 285 299 275 265 286 251 278 275 299 286 275 265 266 277 287 267 297 266 287 263 253 300 277 288 301 277 288 267 253 288 278 302 289 255 290 279 268 289 303 279 290 256 283 269 269 304 290 279 296 283 262 269 234 305 280 270 234 257 280 291 291 258 271 306 271 280 291 307 292 259 258 293 292 274 259 293 271 258 293 306 281 308 260 294 294 281 309 272 295 308 260 281 281 295 282 261 273 282 283 296 295 282 273 296 284 259 274 293 292 274 284 297 297 284 266 263 253 278 275 302 289 276 268 303 285 276 289 310 276 285 298 310 265 285 299 298 278 286 275 302 275 286 299 302 265 299 286 298 287 277 266 284 277 301 287 267 284 266 287 297 288 253 300 302 301 277 300 288 278 288 311 302 289 304 279 290 279 304 289 303 296 290 283 269 296 304 290 269 280 305 234 291 306 271 291 307 305 291 280 307 312 258 293 292 292 284 274 293 258 312 293 306 271 313 306 293 309 281 294 308 309 314 294 272 308 295 315 281 282 315 295 281 316 283 282 296 282 295 316 296 284 292 297 293 303 289 276 310 310 289 285 317 298 285 299 310 286 278 311 302 311 299 286 302 299 311 286 298 277 287 318 284 301 287 318 277 284 287 318 297 288 300 311 302 300 319 301 288 277 319 301 300 290 320 289 304 320 303 289 304 290 283 316 296 304 290 316 296 271 313 307 306 305 306 291 307 292 312 321 293 306 312 293 313 308 322 309 281 294 314 309 308 322 308 315 281 295 323 308 315 315 295 316 282 316 295 324 296 297 292 321 293 297 321 284 293 310 303 289 317 310 285 299 317 310 299 298 325 300 299 311 302 298 299 311 325 277 318 326 284 326 301 318 277 318 321 284 297 327 300 311 288 300 327 319 288 326 319 277 300 301 326 319 277 290 316 320 304 317 303 289 320 303 320 328 304 324 304 316 296 329 313 306 307 305 329 306 307 330 321 312 293 312 330 293 313 306 331 312 313 322 332 308 309 314 308 332 309 323 322 308 315 315 295 323 324 315 316 295 324 330 284 321 293 303 328 317 310 325 310 299 317 299 333 300 311 311 299 333 325 318 321 326 284 326 318 301 319 327 300 333 311 319 327 300 334 326 319 300 334 304 316 320 324 317 328 303 320 320 328 304 324 313 306 335 329 329 306 335 305 336 312 330 321 312 330 313 337 335 331 306 313 313 331 312 337 338 332 308 322 332 308 314 338 308 338 322 323 339 322 323 315 315 323 340 324 315 340 316 324 321 326 284 330 317 341 310 328 342 325 299 317 310 325 341 317 325 299 333 342 333 343 311 325 336 318 321 326 336 318 326 319 327 300 334 333 327 333 343 311 327 319 344 334 319 326 344 334 316 340 320 324 341 317 320 328 328 320 340 324 336 330 312 331 326 321 336 330 330 312 331 337 313 335 331 337 322 338 332 345 332 314 345 338 339 322 338 323 323 340 339 315 346 340 323 324 342 341 325 317 333 343 325 342 326 344 336 319 333 334 327 347 343 333 327 347 344 327 334 347 334 326 344 348 341 317 349 320 320 346 341 328 340 346 328 324 320 340 346 328 336 331 350 330 348 326 336 330 331 350 330 337 335 350 331 337 338 322 339 345 332 345 314 351 352 345 314 338 353 339 338 323 339 353 340 323 353 340 323 346 317 342 341 349 325 341 342 354 343 333 355 342 343 325 342 354 336 344 326 348 347 333 334 356 343 333 347 356 357 344 334 347 348 344 334 357 341 349 346 320 346 349 340 320 336 350 358 330 359 336 331 350 336 358 348 330 345 339 338 360 352 314 345 351 360 345 352 338 360 339 338 353 353 361 339 340 340 353 349 346 341 342 354 349 343 355 333 356 342 355 343 354 344 336 362 348 334 363 347 356 364 343 347 356 334 363 357 347 362 344 357 347 362 344 348 357 349 354 341 346 336 350 365 358 359 331 366 350 365 350 336 359 336 358 365 348 314 352 367 351 351 345 352 368 360 352 345 368 369 352 338 360 339 360 361 353 338 369 360 353 340 353 361 349 349 353 354 346 354 342 355 349 355 343 364 356 364 343 355 354 365 362 336 348 364 347 363 356 357 363 370 347 362 357 370 347 348 365 362 357 314 367 352 371 351 352 367 368 352 360 372 368 372 360 352 369 361 360 369 353 354 361 353 349 355 361 354 349 356 364 355 373 369 364 355 354 363 364 356 373 347 363 370 364 370 357 374 363 357 375 362 370 376 362 365 357 367 352 372 368 372 377 368 360 377 372 369 360 360 369 373 361 369 361 353 354 361 369 355 354 373 364 355 369 373 370 363 364 363 370 373 374 374 357 370 378 379 357 375 362 357 375 370 380 357 379 376 362 365 357 379 376 367 372 381 368 372 377 381 368 369 373 377 360 377 372 373 369 369 355 373 361 372 364 373 369 370 372 364 373 382 373 370 374 374 357 378 380 370 378 357 380 374 370 375 378 379 357 380 375 380 375 370 378 365 379 357 380 372 381 383 367 372 377 382 381 377 373 372 382 370 372 373 382 375 382 370 374 382 377 373 374 375 374 378 383 379 375 380 378 380 365 379 378 381 382 372 383 374 382 377 381 374 375 382 383 374 382 381 383 </DataArray>
        <DataArray type="Int32" Name="offsets" format="ascii">4 8 12 16 20 24 28 32 36 40 44 48 52 56 60 64 68 72 76 80 84 88 92 96 100 104 108 112 116 120 124 128 132 136 140 144 148 152 156 160 164 168 172 176 180 184 188 192 196 200 204 208 212 216 220 224 228 232 236 240 244 248 252 256 260 264 268 272 276 280 284 288 292 296 300 304 308 312 316 320 324 328 332 336 340 344 348 352 356 360 364 368 372 376 380 384 388 392 396 400 404 408 412 416 420 424 428 432 436 440 444 448 452 456 460 464 468 472 476 480 484 488 492 496 500 504 508 512 516 520 524 528 532 536 540 544 548 552 556 560 564 568 572 576 580 584 588 592 596 600 604 608 612 616 620 624 628 632 636 640 644 648 652 656 660 664 668 672 676 680 684 688 692 696 700 704 708 712 716 720 724 728 732 736 740 744 748 752 756 760 764 768 772 776 780 784 788 792 796 800 804 808 812 816 820 824 828 832 836 840 844 848 852 856 860 864 868 872 876 880 884 888 892 896 900 904 908 912 916 920 924 928 932 936 940 944 948 952 956 960 964 968 972 976 980 984 988 992 996 1000 1004 1008 1012 1016 1020 1024 1028 1032 1036 1040 1044 1048 1052 1056 1060 1064 1068 1072 1076 1080 1084 1088 1092 1096 1100 1104 1108 1112 1116 1120 1124 1128 1132 1136 1140 1144 1148 1152 1156 1160 1164 1168 1172 1176 1180 1184 1188 1192 1196 1200 1204 1208 1212 1216 1220 1224 1228 1232 1236 1240 1244 1248 1252 1256 1260 1264 1268 1272 1276 1280 1284 1288 1292 1296 1300 1304 1308 1312 1316 1320 1324 1328 1332 1336 1340 1344 1348 1352 1356 1360 1364 1368 1372 1376 1380 1384 1388 1392 1396 1400 1404 1408 1412 1416 1420 1424 1428 1432 1436 1440 1444 1448 1452 1456 1460 1464 1468 1472 1476 1480 1484 1488 1492 1496 1500 1504 1508 1512 1516 1520 1524 1528 1532 1536 1540 1544 1548 1552 1556 1560 1564 1568 1572 1576 1580 1584 1588 1592 1596 1600 1604 1608 1612 1616 1620 1624 1628 1632 1636 1640 1644 1648 1652 1656 1660 1664 1668 1672 1676 1680 1684 1688 1692 1696 1700 1704 1708 1712 1716 1720 1724 1728 1732 1736 1740 1744 1748 1752 1756 1760 1764 1768 1772 1776 1780 1784 1788 1792 1796 1800 1804 1808 1812 1816 1820 1824 1828 1832 1836 1840 1844 1848 1852 1856 1860 1864 1868 1872 1876 1880 1884 1888 1892 1896 1900 1904 1908 1912 1916 1920 1924 1928 1932 1936 1940 1944 1948 1952 1956 1960 1964 1968 1972 1976 1980 1984 1988 1992 1996 2000 2004 2008 2012 2016 2020 2024 2028 2032 2036 2040 2044 2048 2052 2056 2060 2064 2068 2072 2076 2080 2084 2088 2092 2096 2100 2104 2108 2112 2116 2120 2124 2128 2132 2136 2140 2144 2148 2152 2156 2160 2164 2168 2172 2176 2180 2184 2188 2192 2196 2200 2204 2208 2212 2216 2220 2224 2228 2232 2236 2240 2244 2248 2252 2256 2260 2264 2268 2272 2276 2280 2284 2288 2292 2296 2300 2304 2308 2312 2316 2320 2324 2328 2332 2336 2340 2344 2348 2352 2356 2360 2364 2368 2372 2376 2380 2384 2388 2392 2396 2400 2404 2408 2412 2416 2420 2424 2428 2432 2436 2440 2444 2448 2452 2456 2460 2464 2468 2472 2476 2480 2484 2488 2492 2496 2500 2504 2508 2512 2516 2520 2524 2528 2532 2536 2540 2544 2548 2552 2556 2560 2564 2568 2572 2576 2580 2584 2588 2592 2596 2600 2604 2608 2612 2616 2620 2624 2628 2632 2636 2640 2644 2648 2652 2656 2660 2664 2668 2672 2676 2680 2684 2688 2692 2696 2700 2704 2708 2712 2716 2720 2724 2728 2732 2736 2740 2744 2748 2752 2756 2760 2764 2768 2772 2776 2780 2784 2788 2792 2796 2800 2804 2808 2812 2816 2820 2824 2828 2832 2836 2840 2844 2848 2852 2856 2860 2864 2868 2872 2876 2880 2884 2888 2892 2896 2900 2904 2908 2912 2916 2920 2924 2928 2932 2936 2940 2944 2948 2952 2956 2960 2964 2968 2972 2976 2980 2984 2988 2992 2996 3000 3004 3008 3012 3016 3020 3024 3028 3032 3036 3040 3044 3048 3052 3056 3060 3064 3068 3072 3076 3080 3084 3088 3092 3096 3100 3104 3108 3112 3116 3120 3124 3128 3132 3136 3140 3144 3148 3152 3156 3160 3164 3168 3172 3176 3180 3184 3188 3192 3196 3200 3204 3208 3212 3216 3220 3224 3228 3232 3236 3240 3244 3248 3252 3256 3260 3264 3268 3272 3276 3280 3284 3288 3292 3296 3300 3304 3308 3312 3316 3320 3324 3328 3332 3336 3340 3344 3348 3352 3356 3360 3364 3368 3372 3376 3380 3384 3388 3392 3396 3400 3404 3408 3412 3416 3420 3424 3428 3432 3436 3440 3444 3448 3452 3456 3460 3464 3468 3472 3476 3480 3484 3488 3492 3496 3500 3504 3508 3512 3516 3520 3524 3528 3532 3536 3540 3544 3548 3552 3556 3560 3564 3568 3572 3576 3580 3584 3588 3592 3596 3600 3604 3608 3612 3616 3620 3624 3628 3632 3636 3640 3644 3648 3652 3656 3660 3664 3668 3672 3676 3680 3684 3688 3692 3696 3700 3704 3708 3712 3716 3720 3724 3728 3732 3736 3740 3744 3748 3752 3756 3760 3764 3768 3772 3776 3780 3784 3788 3792 3796 3800 3804 3808 3812 3816 3820 3824 3828 3832 3836 3840 3844 3848 3852 3856 3860 3864 3868 3872 3876 3880 3884 3888 3892 3896 3900 3904 3908 3912 3916 3920 3924 3928 3932 3936 3940 3944 3948 3952 3956 3960 3964 3968 3972 3976 3980 3984 3988 3992 3996 4000 4004 4008 4012 4016 4020 4024 4028 4032 4036 4040 4044 4048 4052 4056 4060 4064 4068 4072 4076 4080 4084 4088 4092 4096 4100 4104 4108 4112 4116 4120 4124 4128 4132 4136 4140 4144 4148 4152 4156 4160 4164 4168 4172 4176 4180 4184 4188 4192 4196 4200 4204 4208 4212 4216 </DataArray>
        <DataArray type="Int8" Name="types" format="ascii">71 71 71 71 71 71 71 71 71 71 71 71 71 71 71 71 71 71 71 71 71 71 71 71 71 71 71 71 71 71 71 71 71 71 71 71 71 71 71 71 71 71 71 71 71 71 71 71 71 71 71 71 71 71 71 71 71 71 71 71 71 71 71 71 71 71 71 71 71 71 71 71 71 71 71 71 71 71 71 71 71 71 71 71 71 71 71 71 71 71 71 71 71 71 71 71 71 71 71 71 71 71 71 71 71 71 71 71 71 71 71 71 71 71 71 71 71 71 71 71 71 71 71 71 71 71 71 71 71 71 71 71 71 71 71 71 71 71 71 71 71 71 71 71 71 71 71 71 71 71 71 71 71 71 71 71 71 71 71 71 71 71 71 71 71 71 71 71 71 71 71 71 71 71 71 71 71 71 71 71 71 71 71 71 71 71 71 71 71 71 71 71 71 71 71 71 71 71 71 71 71 71 71 71 71 71 71 71 71 71 71 71 71 71 71 71 71 71 71 71 71 71 71 71 71 71 71 71 71 71 71 71 71 71 71 71 71 71 71 71 71 71 71 71 71 71 71 71 71 71 71 71 71 71 71 71 71 71 71 71 71 71 71 71 71 71 71 71 71 71 71 71 71 71 71 71 71 71 71 71 71 71 71 71 71 71 71 71 71 71 71 71 71 71 71 71 71 71 71 71 71 71 71 71 71 71 71 71 71 71 71 71 71 71 71 71 71 71 71 71 71 71 71 71 71 71 71 71 71 71 71 71 71 71 71 71 71 71 71 71 71 71 71 71 71 71 71 71 71 71 71 71 71 71 71 71 71 71 71 71 71 71 71 71 71 71 71 71 71 71 71 71 71 71 71 71 71 71 71 71 71 71 71 71 71 71 71 71 71 71 71 71 71 71 71 71 71 71 71 71 71 71 71 71 71 71 71 71 71 71 71 71 71 71 71 71 71 71 71 71 71 71 71 71 71 71 71 71 71 71 71 71 71 71 71 71 71 71 71 71 71 71 71 71 71 71 71 71 71 71 71 71 71 71 71 71 71 71 71 71 71 71 71 71 71 71 71 71 71 71 71 71 71 71 71 71 71 71 71 71 71 71 71 71 71 71 71 71 71 71 71 71 71 71 71 71 71 71 71 71 71 71 71 71 71 71 71 71 71 71 71 71 71 71 71 71 71 71 71 71 71 71 71 71 71 71 71 71 71 71 71 71 71 71 71 71 71 71 71 71 71 71 71 71 71 71 71 71 71 71 71 71 71 71 71 71 71 71 71 71 71 71 71 71 71 71 71 71 71 71 71 71 71 71 71 71 71 71 71 71 71 71 71 71 71 71 71 71 71 71 71 71 71 71 71 71 71 71 71 71 71 71 71 71 71 71 71 71 71 71 71 71 71 71 71 71 71 71 71 71 71 71 71 71 71 71 71 71 71 71 71 71 71 71 71 71 71 71 71 71 71 71 71 71 71 71 71 71 71 71 71 71 71 71 71 71 71 71 71 71 71 71 71 71 71 71 71 71 71 71 71 71 71 71 71 71 71 71 71 71 71 71 71 71 71 71 71 71 71 71 71 71 71 71 71 71 71 71 71 71 71 71 71 71 71 71 71 71 71 71 71 71 71 71 71 71 71 71 71 71 71 71 71 71 71 71 71 71 71 71 71 71 71 71 71 71 71 71 71 71 71 71 71 71 71 71 71 71 71 71 71 71 71 71 71 71 71 71 71 71 71 71 71 71 71 71 71 71 71 71 71 71 71 71 71 71 71 71 71 71 71 71 71 71 71 71 71 71 71 71 71 71 71 71 71 71 71 71 71 71 71 71 71 71 71 71 71 71 71 71 71 71 71 71 71 71 71 71 71 71 71 71 71 71 71 71 71 71 71 71 71 71 71 71 71 71 71 71 71 71 71 71 71 71 71 71 71 71 71 71 71 71 71 71 71 71 71 71 71 71 71 71 71 71 71 71 71 71 71 71 71 71 71 71 71 71 71 71 71 71 71 71 71 71 71 71 71 71 71 71 71 71 71 71 71 71 71 71 71 71 71 71 71 71 71 71 71 71 71 71 71 71 71 71 71 71 71 71 71 71 71 71 71 71 71 71 71 71 71 71 71 71 71 71 71 71 71 71 71 71 71 71 71 71 71 71 71 71 71 71 71 71 71 71 71 71 71 71 71 71 71 71 71 71 71 71 71 71 71 71 71 71 71 71 71 71 71 71 71 71 71 71 71 71 71 71 71 71 71 71 71 71 71 71 71 71 71 71 71 71 71 71 71 71 71 71 71 71 71 71 71 71 71 71 71 71 71 71 71 71 71 71 71 71 71 71 71 71 71 71 71 71 71 71 71 71 71 71 71 71 71 71 71 71 71 71 71 71 71 71 71 71 71 71 </DataArray>
      </Cells>
      <CellData>
        <DataArray type="UInt8" Name="vtkGhostType" format="ascii" RangeMin="0" RangeMax="1">0 0 0 0 0 0 0 0 0 0 0 0 0 0 0 0 0 0 0 0 0 0 0 0 0 0 0 0 0 0 0 0 0 0 0 0 0 0 0 0 0 0 0 0 0 0 0 0 0 0 0 0 0 0 0 0 0 0 0 0 0 0 0 0 0 0 0 0 0 0 0 0 0 0 0 0 0 0 0 0 0 0 0 0 0 0 0 0 0 0 0 0 0 0 0 0 0 0 0 0 0 0 0 0 0 0 0 0 0 0 0 0 0 0 0 0 0 0 0 0 0 0 0 0 0 0 0 0 0 0 0 0 0 0 0 0 0 0 0 0 0 0 0 0 0 0 0 0 0 0 0 0 0 0 0 0 0 0 0 0 0 0 0 0 0 0 0 0 0 0 0 0 0 0 0 0 0 0 0 0 0 0 0 0 0 0 0 0 0 0 0 0 0 0 0 0 0 0 0 0 0 0 0 0 0 0 0 0 0 0 0 0 0 0 0 0 0 0 0 0 0 0 0 0 0 0 0 0 0 0 0 0 0 0 0 0 0 0 0 0 0 0 0 0 0 0 0 0 0 0 0 0 0 0 0 0 0 0 0 0 0 0 0 0 0 0 0 0 0 0 0 0 0 0 0 0 0 0 0 0 0 0 0 0 0 0 0 0 0 0 0 0 0 0 0 0 0 0 0 0 0 0 0 0 0 0 0 0 0 0 0 0 0 0 0 0 0 0 0 0 0 0 0 0 0 0 0 0 0 0 0 0 0 0 0 0 0 0 0 0 0 0 0 0 0 0 0 0 0 0 0 0 0 0 0 0 0 0 0 0 0 0 0 0 0 0 0 0 0 0 0 0 0 0 0 0 0 0 0 0 0 0 0 0 0 0 0 0 0 0 0 0 0 0 0 0 0 0 0 0 0 0 0 0 0 0 0 0 0 0 0 0 0 0 0 0 0 0 0 0 0 0 0 0 0 0 0 0 0 0 0 0 0 0 0 0 0 0 0 0 0 0 0 0 0 0 0 0 0 0 0 0 0 0 0 0 0 0 0 0 0 0 0 0 0 0 0 0 0 0 0 0 0 0 0 0 0 0 0 0 0 0 0 0 0 0 0 0 0 0 0 0 0 0 0 0 0 0 0 0 0 0 0 0 0 0 0 0 0 0 0 0 0 0 0 0 0 0 0 0 0 0 0 0 0 0 0 0 0 0 0 0 0 0 0 0 0 0 0 0 0 0 0 0 0 0 0 0 0 0 0 0 0 0 0 0 0 0 0 0 0 0 0 0 0 0 0 0 0 0 0 0 0 0 0 0 0 0 0 0 0 0 0 0 0 0 0 0 0 0 0 0 0 0 0 0 0 0 0 0 0 0 0 0 0 0 0 0 0 0 0 0 0 0 0 0 0 0 0 0 0 0 0 0 0 0 0 0 0 0 0 0 0 0 0 0 0 0 0 0 0 0 0 0 0 0 0 0 0 0 0 0 0 0 0 0 0 0 0 0 0 0 0 0 0 0 0 0 0 0 0 0 0 0 0 0 0 0 0 0 0 0 0 0 0 0 0 0 0 0 0 0 0 0 0 0 0 0 0 0 0 0 0 0 0 0 0 0 0 0 0 0 0 0 0 0 0 0 0 0 0 0 0 0 0 0 0 0 0 0 0 0 0 0 0 0 0 0 0 0 0 0 0 0 0 0 0 0 0 0 0 0 0 0 0 0 0 0 0 0 0 0 0 0 0 0 0 0 0 0 0 0 0 0 0 0 0 0 0 0 0 0 0 0 0 0 0 0 0 0 0 0 0 0 0 0 0 0 0 0 0 0 0 0 0 0 0 0 0 0 0 0 0 0 0 0 0 0 0 0 0 0 0 0 0 0 0 0 0 0 0 0 0 0 0 0 0 0 0 0 0 0 0 0 0 0 0 0 0 0 0 0 0 0 0 0 0 0 0 0 0 0 0 0 0 0 0 0 0 0 0 0 0 0 0 0 0 0 0 0 0 0 0 0 0 0 0 0 0 0 0 0 0 0 0 0 0 0 0 0 0 0 0 0 0 0 0 0 0 0 0 0 0 0 0 0 0 0 0 0 0 0 0 0 0 0 0 0 0 0 0 0 0 0 0 0 0 0 0 0 0 0 0 0 0 0 0 0 0 0 0 0 0 0 0 0 0 0 0 0 0 0 0 0 0 0 0 0 0 0 0 0 0 0 0 0 0 0 0 0 0 0 0 0 0 0 0 0 0 0 0 0 0 0 0 0 0 0 0 0 0 0 0 0 0 0 0 0 0 0 0 0 0 0 0 0 0 0 0 0 0 0 0 0 0 0 0 0 0 0 0 0 0 0 0 0 0 0 0 0 0 0 0 0 0 0 0 0 0 0 0 0 0 0 </DataArray>
        <DataArray type="Int64" IdType="1" Name="vtkOriginalCellIds" format="ascii" RangeMin="0" RangeMax="1053">0 1 2 3 4 5 6 7 8 9 10 11 12 13 14 15 16 17 18 19 20 21 22 23 24 25 26 27 28 29 30 31 32 33 34 35 36 37 38 39 40 41 42 43 44 45 46 47 48 49 50 51 52 53 54 55 56 57 58 59 60 61 62 63 64 65 66 67 68 69 70 71 72 73 74 75 76 77 78 79 80 81 82 83 84 85 86 87 88 89 90 91 92 93 94 95 96 97 98 99 100 101 102 103 104 105 106 107 108 109 110 111 112 113 114 115 116 117 118 119 120 121 122 123 124 125 126 127 128 129 130 131 132 133 134 135 136 137 138 139 140 141 142 143 144 145 146 147 148 149 150 151 152 153 154 155 156 157 158 159 160 161 162 163 164 165 166 167 168 169 170 171 172 173 174 175 176 177 178 179 180 181 182 183 184 185 186 187 188 189 190 191 192 193 194 195 196 197 198 199 200 201 202 203 204 205 206 207 208 209 210 211 212 213 214 215 216 217 218 219 220 221 222 223 224 225 226 227 228 229 230 231 232 233 234 235 236 237 238 239 240 241 242 243 244 245 246 247 248 249 250 251 252 253 254 255 256 257 258 259 260 261 262 263 264 265 266 267 268 269 270 271 272 273 274 275 276 277 278 279 280 281 282 283 284 285 286 287 288 289 290 291 292 293 294 295 296 297 298 299 300 301 302 303 304 305 306 307 308 309 310 311 312 313 314 315 316 317 318 319 320 321 322 323 324 325 326 327 328 329 330 331 332 333 334 335 336 337 338 339 340 341 342 343 344 345 346 347 348 349 350 351 352 353 354 355 356 357 358 359 360 361 362 363 364 365 366 367 368 369 370 371 372 373 374 375 376 377 378 379 380 381 382 383 384 385 386 387 388 389 390 391 392 393 394 395 396 397 398 399 400 401 402 403 404 405 406 407 408 409 410 411 412 413 414 415 416 417 418 419 420 421 422 423 424 425 426 427 428 429 430 431 432 433 434 435 436 437 438 439 440 441 442 443 444 445 446 447 448 449 450 451 452 453 454 455 456 457 458 459 460 461 462 463 464 465 466 467 468 469 470 471 472 473 474 475 476 477 478 479 480 481 482 483 484 485 486 487 488 489 490 491 492 493 494 495 496 497 498 499 500 501 502 503 504 505 506 507 508 509 510 511 512 513 514 515 516 517 518 519 520 521 522 523 524 525 526 527 528 529 530 531 532 533 534 535 536 537 538 539 540 541 542 543 544 545 546 547 548 549 550 551 552 553 554 555 556 557 558 559 560 561 562 563 564 565 566 567 568 569 570 571 572 573 574 575 576 577 578 579 580 581 582 583 584 585 586 587 588 589 590 591 592 593 594 595 596 597 598 599 600 601 602 603 604 605 606 607 608 609 610 611 612 613 614 615 616 617 618 619 620 621 622 623 624 625 626 627 628 629 630 631 632 633 634 635 636 637 638 639 640 641 642 643 644 645 646 647 648 649 650 651 652 653 654 655 656 657 658 659 660 661 662 663 664 665 666 667 668 669 670 671 672 673 674 675 676 677 678 679 680 681 682 683 684 685 686 687 688 689 690 691 692 693 694 695 696 697 698 699 700 701 702 703 704 705 706 707 708 709 710 711 712 713 714 715 716 717 718 719 720 721 722 723 724 725 726 727 728 729 730 731 732 733 734 735 736 737 738 739 740 741 742 743 744 745 746 747 748 749 750 751 752 753 754 755 756 757 758 759 760 761 762 763 764 765 766 767 768 769 770 771 772 773 774 775 776 777 778 779 780 781 782 783 784 785 786 787 788 789 790 791 792 793 794 795 796 797 798 799 800 801 802 803 804 805 806 807 808 809 810 811 812 813 814 815 816 817 818 819 820 821 822 823 824 825 826 827 828 829 830 831 832 833 834 835 836 837 838 839 840 841 842 843 844 845 846 847 848 849 850 851 852 853 854 855 856 857 858 859 860 861 862 863 864 865 866 867 868 869 870 871 872 873 874 875 876 877 878 879 880 881 882 883 884 885 886 887 888 889 890 891 892 893 894 895 896 897 898 899 900 901 902 903 904 905 906 907 908 909 910 911 912 913 914 915 916 917 918 919 920 921 922 923 924 925 926 927 928 929 930 931 932 933 934 935 936 937 938 939 940 941 942 943 944 945 946 947 948 949 950 951 952 953 954 955 956 957 958 959 960 961 962 963 964 965 966 967 968 969 970 971 972 973 974 975 976 977 978 979 980 981 982 983 984 985 986 987 988 989 990 991 992 993 994 995 996 997 998 999 1000 1001 1002 1003 1004 1005 1006 1007 1008 1009 1010 1011 1012 1013 1014 1015 1016 1017 1018 1019 1020 1021 1022 1023 1024 1025 1026 1027 1028 1029 1030 1031 1032 1033 1034 1035 1036 1037 1038 1039 1040 1041 1042 1043 1044 1045 1046 1047 1048 1049 1050 1051 1052 1053 </DataArray>
      </CellData>
      <PointData Vectors="u">
        <DataArray type="Int64" IdType="1" Name="vtkOriginalPointIds" format="ascii" RangeMin="0" RangeMax="383">0 1 2 3 4 5 6 7 8 9 10 11 12 13 14 15 16 17 18 19 20 21 22 23 24 25 26 27 28 29 30 31 32 33 34 35 36 37 38 39 40 41 42 43 44 45 46 47 48 49 50 51 52 53 54 55 56 57 58 59 60 61 62 63 64 65 66 67 68 69 70 71 72 73 74 75 76 77 78 79 80 81 82 83 84 85 86 87 88 89 90 91 92 93 94 95 96 97 98 99 100 101 102 103 104 105 106 107 108 109 110 111 112 113 114 115 116 117 118 119 120 121 122 123 124 125 126 127 128 129 130 131 132 133 134 135 136 137 138 139 140 141 142 143 144 145 146 147 148 149 150 151 152 153 154 155 156 157 158 159 160 161 162 163 164 165 166 167 168 169 170 171 172 173 174 175 176 177 178 179 180 181 182 183 184 185 186 187 188 189 190 191 192 193 194 195 196 197 198 199 200 201 202 203 204 205 206 207 208 209 210 211 212 213 214 215 216 217 218 219 220 221 222 223 224 225 226 227 228 229 230 231 232 233 234 235 236 237 238 239 240 241 242 243 244 245 246 247 248 249 250 251 252 253 254 255 256 257 258 259 260 261 262 263 264 265 266 267 268 269 270 271 272 273 274 275 276 277 278 279 280 281 282 283 284 285 286 287 288 289 290 291 292 293 294 295 296 297 298 299 300 301 302 303 304 305 306 307 308 309 310 311 312 313 314 315 316 317 318 319 320 321 322 323 324 325 326 327 328 329 330 331 332 333 334 335 336 337 338 339 340 341 342 343 344 345 346 347 348 349 350 351 352 353 354 355 356 357 358 359 360 361 362 363 364 365 366 367 368 369 370 371 372 373 374 375 376 377 378 379 380 381 382 383 </DataArray>
        <DataArray type="UInt8" Name="vtkGhostType" format="ascii" RangeMin="0" RangeMax="0">0 0 0 0 0 0 0 0 0 0 0 0 0 0 0 0 0 0 0 0 0 0 0 0 0 0 0 0 0 0 0 0 0 0 0 0 0 0 0 0 0 0 0 0 0 0 0 0 0 0 0 0 0 0 0 0 0 0 0 0 0 0 0 0 0 0 0 0 0 0 0 0 0 0 0 0 0 0 0 0 0 0 0 0 0 0 0 0 0 0 0 0 0 0 0 0 0 0 0 0 0 0 0 0 0 0 0 0 0 0 0 0 0 0 0 0 0 0 0 0 0 0 0 0 0 0 0 0 0 0 0 0 0 0 0 0 0 0 0 0 0 0 0 0 0 0 0 0 0 0 0 0 0 0 0 0 0 0 0 0 0 0 0 0 0 0 0 0 0 0 0 0 0 0 0 0 0 0 0 0 0 0 0 0 0 0 0 0 0 0 0 0 0 0 0 0 0 0 0 0 0 0 0 0 0 0 0 0 0 0 0 0 0 0 0 0 0 0 0 0 0 0 0 0 0 0 0 0 0 0 0 0 0 0 0 0 0 0 0 0 0 0 0 0 0 0 0 0 0 0 0 0 0 0 0 0 0 0 0 0 0 0 0 0 0 0 0 0 0 0 0 0 0 0 0 0 0 0 0 0 0 0 0 0 0 0 0 0 0 0 0 0 0 0 0 0 0 0 0 0 0 0 0 0 0 0 0 0 0 0 0 0 0 0 0 0 0 0 0 0 0 0 0 0 0 0 0 0 0 0 0 0 0 0 0 0 0 0 0 0 0 0 0 0 0 0 0 0 0 0 0 0 0 0 0 0 0 0 0 0 0 0 0 0 0 0 0 0 0 0 0 0 0 0 0 0 0 0 0 0 0 0 0 0 </DataArray>
        <DataArray type="Float64" Name="u" format="ascii" NumberOfComponents="3">0 0 0 0 0 0 0 0 0 0 0 0 0 0 0 0 0 0 0 0 0 0 0 0 0 0 0 0 0 0 0 0 0 0 0 0 0 0 0 0 0 0 0 0 0 0 0 0 0 0 0 0 0 0 0 0 0 0 0 0 0 0 0 0 0 0 0 0 0 0 0 0 0 0 0 0 0 0 0 0 0 0 0 0 0 0 0 0 0 0 0 0 0 0 0 0 0 0 0 0 0 0 0 0 0 0 0 0 0 0 0 0 0 0 0 0 0 0 0 0 0 0 0 0 0 0 0 0 0 0 0 0 0 0 0 0 0 0 0 0 0 0 0 0 0 0 0 0 0 0 0 0 0 0 0 0 0 0 0 0 0 0 0 0 0 0 0 0 0 0 0 0 0 0 0 0 0 0 0 0 0 0 0 0 0 0 0 0 0 0 0 0 0 0 0 0 0 0 0 0 0 0 0 0 0 0 0 0 0 0 0 0 0 0 0 0 0 0 0 0 0 0 0 0 0 0 0 0 0 0 0 0 0 0 0 0 0 0 0 0 0 0 0 0 0 0 0 0 0 0 0 0 0 0 0 0 0 0 0 0 0 0 0 0 0 0 0 0 0 0 0 0 0 0 0 0 0 0 0 0 0 0 0 0 0 0 0 0 0 0 0 0 0 0 0 0 0 0 0 0 0 0 0 0 0 0 0 0 0 0 0 0 0 0 0 0 0 0 0 0 0 0 0 0 0 0 0 0 0 0 0 0 0 0 0 0 0 0 0 0 0 0 0 0 0 0 0 0 0 0 0 0 0 0 0 0 0 0 0 0 0 0 0 0 0 0 0 0 0 0 0 0 0 0 0 0 0 0 0 0 0 0 0 0 0 0 0 0 0 0 0 0 0 0 0 0 0 0 0 0 0 0 0 0 0 0 0 0 0 0 0 0 0 0 0 0 0 0 0 0 0 0 0 0 0 0 0 0 0 0 0 0 0 0 0 0 0 0 0 0 0 0 0 0 0 0 0 0 0 0 0 0 0 0 0 0 0 0 0 0 0 0 0 0 0 0 0 0 0 0 0 0 0 0 0 0 0 0 0 0 0 0 0 0 0 0 0 0 0 0 0 0 0 0 0 0 0 0 0 0 0 0 0 0 0 0 0 0 0 0 0 0 0 0 0 0 0 0 0 0 0 0 0 0 0 0 0 0 0 0 0 0 0 0 0 0 0 0 0 0 0 0 0 0 0 0 0 0 0 0 0 0 0 0 0 0 0 0 0 0 0 0 0 0 0 0 0 0 0 0 0 0 0 0 0 0 0 0 0 0 0 0 0 0 0 0 0 0 0 0 0 0 0 0 0 0 0 0 0 0 0 0 0 0 0 0 0 0 0 0 0 0 0 0 0 0 0 0 0 0 0 0 0 0 0 0 0 0 0 0 0 0 0 0 0 0 0 0 0 0 0 0 0 0 0 0 0 0 0 0 0 0 0 0 0 0 0 0 0 0 0 0 0 0 0 0 0 0 0 0 0 0 0 0 0 0 0 0 0 0 0 0 0 0 0 0 0 0 0 0 0 0 0 0 0 0 0 0 0 0 0 0 0 0 0 0 0 0 0 0 0 0 0 0 0 0 0 0 0 0 0 0 0 0 0 0 0 0 0 0 0 0 0 0 0 0 0 0 0 0 0 0 0 0 0 0 0 0 0 0 0 0 0 0 0 0 0 0 0 0 0 0 0 0 0 0 0 0 0 0 0 0 0 0 0 0 0 0 0 0 0 0 0 0 0 0 0 0 0 0 0 0 0 0 0 0 0 0 0 0 0 0 0 0 0 0 0 0 0 0 0 0 0 0 0 0 0 0 0 0 0 0 0 0 0 0 0 0 0 0 0 0 0 0 0 0 0 0 0 0 0 0 0 0 0 0 0 0 0 0 0 0 0 0 0 0 0 0 0 0 0 0 0 0 0 0 0 0 0 0 0 0 0 0 0 0 0 0 0 0 0 0 0 0 0 0 0 0 0 0 0 0 0 0 0 0 0 0 0 0 0 0 0 0 0 0 0 0 0 0 0 0 0 0 0 0 0 0 0 0 0 0 0 0 0 0 0 0 0 0 0 0 0 0 0 0 0 0 0 0 0 0 0 0 0 0 0 0 0 0 0 0 0 0 0 0 0 0 0 0 0 0 0 0 0 0 0 0 0 0 0 0 0 0 0 0 0 0 0 0 0 0 0 0 0 0 0 0 0 0 0 0 0 0 0 0 0 0 0 0 0 0 0 0 0 0 0 0 0 0 0 0 0 0 0 0 0 0 0 0 0 0 0 0 0 0 0 0 0 0 0 0 0 0 0 0 0 0 0 0 0 0 0 0 0 0 0 0 0 0 0 0 0 0 0 0 0 0 0 0 0 0 0 0 0 0 0 0 0 0 0 0 0 0 0 0 0 0 0 0 0 0 0 0 0 0 0 0 0 0 0 0 0 0 0 0 0 0 0 0 0 0 0 0 0 0 0 0 0 0 0 0 0 0 0 0 0 0 0 0 0 0 0 0 0 0 0 0 0 0 0 0 0 0 0 0 0 0 0 0 0 0 0 0 0 0 0 0 0 0 0 0 </DataArray>
      </PointData>
    </Piece>
  </UnstructuredGrid>
</VTKFile>
